<svg width="36" height="35" viewBox="0 0 36 35" fill="none" xmlns="http://www.w3.org/2000/svg">
<path fill-rule="evenodd" clip-rule="evenodd" d="M6.72809 9.99458C9.71571 8.73542 13.4879 7.9878 17.577 7.9878C21.6662 7.9878 25.4384 8.73542 28.426 10.0025C28.6399 6.46106 27.7603 3.54139 25.7633 2.01466C25.8029 2.0304 25.8504 2.054 25.8901 2.06974C23.4176 0.747626 20.5884 0 17.577 0C14.5815 0 11.7524 0.747626 9.28777 2.06187C9.31947 2.04614 9.3591 2.0304 9.39079 2.01466C7.38584 3.53352 6.5062 6.4532 6.72809 9.99458ZM6.85488 11.3167C7.26697 14.4882 8.48738 18.0453 10.5082 21.5159C12.529 24.9865 15.0253 27.8196 17.577 29.7555C20.1288 27.8117 22.6251 24.9865 24.6459 21.5159C26.6667 18.0453 27.8871 14.4803 28.2992 11.3167C25.3274 10.089 21.6107 9.35713 17.577 9.35713C13.5433 9.35713 9.82665 10.089 6.85488 11.3167ZM29.6305 10.5533C32.8083 12.1588 34.8767 14.3859 35.1541 16.8727C34.9559 10.8524 31.683 5.60326 26.8569 2.61276C28.9015 4.10014 29.8207 7.00408 29.6305 10.5533ZM16.4913 30.5268C13.9 28.5829 11.3561 25.7183 9.31155 22.2006C7.26697 18.6828 6.03864 15.0706 5.6424 11.8676C2.44081 13.4573 0.340763 15.6687 0.0079246 18.1476C0.0079246 18.1319 0.00792472 18.1162 0 18.1004C0.213967 24.0893 3.4631 29.307 8.26548 32.2896C8.24171 32.2738 8.21794 32.2502 8.19416 32.2345C10.524 33.1867 13.5037 32.4863 16.4913 30.5268ZM29.5117 11.8676C29.1154 15.0706 27.8871 18.6828 25.8425 22.2006C23.7979 25.7183 21.262 28.5829 18.6627 30.5268C21.6424 32.4863 24.63 33.1867 26.9599 32.2266C26.9282 32.2502 26.8965 32.2738 26.8648 32.2975C31.691 29.3148 34.9559 24.0657 35.162 18.0453C35.162 18.0768 35.1541 18.1083 35.1541 18.1398C34.8133 15.6687 32.7132 13.4573 29.5117 11.8676ZM5.52353 10.5533C5.33334 7.01982 6.24468 4.12375 8.28133 2.63637C3.47103 5.61113 0.213967 10.8366 0 16.8255C0.301139 14.3544 2.36949 12.143 5.52353 10.5533ZM17.577 31.2823C14.5894 33.2104 11.6097 33.8793 9.2957 32.872C11.7603 34.1783 14.5815 34.926 17.577 34.926C20.5805 34.926 23.4017 34.1783 25.8742 32.8641C23.5602 33.8793 20.5726 33.2182 17.577 31.2823Z" fill="#110000"/>
</svg>
